<svg id="visual" viewBox="0 0 960 540" width="960" height="540" xmlns="http://www.w3.org/2000/svg" xmlns:xlink="http://www.w3.org/1999/xlink" version="1.1"><rect x="0" y="0" width="960" height="540" fill="#FFFFFF"></rect><defs><linearGradient id="grad1_0" x1="43.8%" y1="0%" x2="100%" y2="100%"><stop offset="14.444444444444446%" stop-color="#8e0000" stop-opacity="1"></stop><stop offset="85.55555555555554%" stop-color="#8e0000" stop-opacity="1"></stop></linearGradient></defs><defs><linearGradient id="grad1_1" x1="43.8%" y1="0%" x2="100%" y2="100%"><stop offset="14.444444444444446%" stop-color="#8e0000" stop-opacity="1"></stop><stop offset="85.55555555555554%" stop-color="#ffffff" stop-opacity="1"></stop></linearGradient></defs><defs><linearGradient id="grad2_0" x1="0%" y1="0%" x2="56.3%" y2="100%"><stop offset="14.444444444444446%" stop-color="#8e0000" stop-opacity="1"></stop><stop offset="85.55555555555554%" stop-color="#8e0000" stop-opacity="1"></stop></linearGradient></defs><defs><linearGradient id="grad2_1" x1="0%" y1="0%" x2="56.3%" y2="100%"><stop offset="14.444444444444446%" stop-color="#ffffff" stop-opacity="1"></stop><stop offset="85.55555555555554%" stop-color="#8e0000" stop-opacity="1"></stop></linearGradient></defs><g transform="translate(960, 0)"><path d="M0 297C-35.5 261.3 -71 225.5 -118.5 205.2C-166 185 -225.5 180.1 -257.2 148.5C-289 116.9 -293 58.4 -297 0L0 0Z" fill="#d38a78"></path><path d="M0 148.5C-17.8 130.6 -35.5 112.8 -59.2 102.6C-83 92.5 -112.7 90.1 -128.6 74.3C-144.5 58.4 -146.5 29.2 -148.5 0L0 0Z" fill="#8e0000"></path></g><g transform="translate(0, 540)"><path d="M0 -297C60.4 -294.1 120.8 -291.2 148.5 -257.2C176.2 -223.2 171.2 -158.1 190.5 -110C209.8 -61.9 253.4 -31 297 0L0 0Z" fill="#d38a78"></path><path d="M0 -148.5C30.2 -147.1 60.4 -145.6 74.2 -128.6C88.1 -111.6 85.6 -79 95.3 -55C104.9 -31 126.7 -15.5 148.5 0L0 0Z" fill="#8e0000"></path></g></svg>