<svg id="visual" viewBox="0 0 960 540" width="960" height="540" xmlns="http://www.w3.org/2000/svg" xmlns:xlink="http://www.w3.org/1999/xlink" version="1.1"><rect x="0" y="0" width="960" height="540" fill="#f9adad"></rect><path d="M0 114L6 113.2C12 112.3 24 110.7 35.8 114.8C47.7 119 59.3 129 71.2 127.7C83 126.3 95 113.7 106.8 109C118.7 104.3 130.3 107.7 142.2 105.2C154 102.7 166 94.3 177.8 92.2C189.7 90 201.3 94 213.2 100.7C225 107.3 237 116.7 248.8 116.8C260.7 117 272.3 108 284.2 106.2C296 104.3 308 109.7 320 115C332 120.3 344 125.7 355.8 120.2C367.7 114.7 379.3 98.3 391.2 95.5C403 92.7 415 103.3 426.8 109C438.7 114.7 450.3 115.3 462.2 118C474 120.7 486 125.3 497.8 128.7C509.7 132 521.3 134 533.2 127.2C545 120.3 557 104.7 568.8 101C580.7 97.3 592.3 105.7 604.2 110C616 114.3 628 114.7 640 108.5C652 102.3 664 89.7 675.8 83C687.7 76.3 699.3 75.7 711.2 84.7C723 93.7 735 112.3 746.8 120.3C758.7 128.3 770.3 125.7 782.2 121.7C794 117.7 806 112.3 817.8 111C829.7 109.7 841.3 112.3 853.2 116.3C865 120.3 877 125.7 888.8 121C900.7 116.3 912.3 101.7 924.2 102.8C936 104 948 121 954 129.5L960 138L960 0L954 0C948 0 936 0 924.2 0C912.3 0 900.7 0 888.8 0C877 0 865 0 853.2 0C841.3 0 829.7 0 817.8 0C806 0 794 0 782.2 0C770.3 0 758.7 0 746.8 0C735 0 723 0 711.2 0C699.3 0 687.7 0 675.8 0C664 0 652 0 640 0C628 0 616 0 604.2 0C592.3 0 580.7 0 568.8 0C557 0 545 0 533.2 0C521.3 0 509.7 0 497.8 0C486 0 474 0 462.2 0C450.3 0 438.7 0 426.8 0C415 0 403 0 391.2 0C379.3 0 367.7 0 355.8 0C344 0 332 0 320 0C308 0 296 0 284.2 0C272.3 0 260.7 0 248.8 0C237 0 225 0 213.2 0C201.3 0 189.7 0 177.8 0C166 0 154 0 142.2 0C130.3 0 118.7 0 106.8 0C95 0 83 0 71.2 0C59.3 0 47.7 0 35.8 0C24 0 12 0 6 0L0 0Z" fill="#9b0505" stroke-linecap="round" stroke-linejoin="miter"></path></svg>